<?xml version="1.0" encoding="utf-8"?>
<!-- Generator: Adobe Illustrator 27.5.0, SVG Export Plug-In . SVG Version: 6.00 Build 0)  -->
<svg version="1.1" xmlns="http://www.w3.org/2000/svg" xmlns:xlink="http://www.w3.org/1999/xlink" x="0px" y="0px"
	 viewBox="0 0 3710 3710" style="enable-background:new 0 0 3710 3710;" xml:space="preserve">
<g id="Background">
	<g>
		<g>
			<rect style="fill:#FFFFFF;" width="3710" height="3710"/>
		</g>
	</g>
</g>
<g id="Illustration">
	<g>
		<path style="fill:#F4F7FA;" d="M1885.222,455.635C1155.385,434.084,523.191,963.651,427.678,1658.51
			c-104.43,759.734,470.34,1443.311,1177.572,1552.796c879.677,136.182,1732.913-651.643,1656.301-1506.315
			C3203.83,1061.071,2627.116,477.542,1885.222,455.635z"/>
		<g>
			<g>
				<defs>
					<path id="SVGID_1_" d="M1704.59,2525.647c102.516-72.391,120.848-262.027,95.747-389.292
						c-29.306-148.585-106.054-152.521-119.854-269.851c-25.694-218.454,229.818-294.396,221.378-516.752
						c-6.899-181.774-180.279-199.997-178.76-401.644c1.095-145.506,91.899-205.955,51.115-332.92
						c-3.487-10.854-42.766-127.368-142.276-154.601c-100.436-27.485-203.49,52.06-254.451,116.133
						c-94.202,118.437-24.469,201.679-84.618,383.059c-81.891,246.942-259.619,238.821-282.334,433.113
						c-18.758,160.441,98.107,202.985,73.776,380.465c-22.595,164.807-131.576,188.009-136.153,300.342
						C937.63,2332.119,1495.487,2673.304,1704.59,2525.647z"/>
				</defs>
				
					<linearGradient id="SVGID_00000179613430151680441390000016173503429802630800_" gradientUnits="userSpaceOnUse" x1="1451.5352" y1="1087.3815" x2="1391.6129" y2="2521.99">
					<stop  offset="0" style="stop-color:#FFC444"/>
					<stop  offset="0.5917" style="stop-color:#F8924F"/>
					<stop  offset="0.9964" style="stop-color:#F36F56"/>
				</linearGradient>
				
					<use xlink:href="#SVGID_1_"  style="overflow:visible;fill:url(#SVGID_00000179613430151680441390000016173503429802630800_);"/>
				<clipPath id="SVGID_00000085237028107900840140000005772382606720210616_">
					<use xlink:href="#SVGID_1_"  style="overflow:visible;"/>
				</clipPath>
				<g style="clip-path:url(#SVGID_00000085237028107900840140000005772382606720210616_);">
					<g style="opacity:0.7;">
						<path style="fill:#FFFFFF;" d="M1556.757,2647.038c-0.606,0-1.22-0.156-1.781-0.486
							c-96.227-56.521-176.41-130.698-238.322-220.468c-58.726-85.155-119.44-173.195-114.542-283.306
							c3.726-83.78,42.708-128.536,92.06-185.198c47.053-54.025,105.616-121.261,146.587-245.788
							c23.386-71.079,52.494-159.54,30.052-265.444c-13.024-61.464-37.074-96.246-58.296-126.934
							c-22.223-32.138-41.417-59.895-37.749-107.512c5.874-76.279,46.613-124.994,93.785-181.402
							c28.607-34.209,58.187-69.582,84.128-115.521c72.922-129.147,74.856-303.013,5.75-516.766
							c-0.599-1.852,0.418-3.839,2.27-4.438c1.854-0.602,3.84,0.419,4.439,2.27c69.736,215.706,67.61,391.467-6.322,522.401
							c-26.257,46.501-56.048,82.125-84.858,116.577c-46.394,55.479-86.462,103.393-92.164,177.422
							c-3.475,45.122,14.173,70.646,36.519,102.96c21.598,31.233,46.078,66.634,59.396,129.482
							c22.832,107.763-6.602,197.225-30.255,269.109c-41.415,125.879-100.496,193.711-147.967,248.214
							c-48.448,55.625-86.717,99.562-90.333,180.882c-4.793,107.745,55.237,194.793,113.292,278.976
							c61.333,88.932,140.765,162.409,236.099,218.406c1.68,0.986,2.241,3.146,1.255,4.824
							C1559.142,2646.415,1557.965,2647.038,1556.757,2647.038z"/>
					</g>
					<g style="opacity:0.7;">
						<path style="fill:#FFFFFF;" d="M1481.444,1500.223c-0.969,0-1.935-0.397-2.63-1.176c-1.298-1.452-1.172-3.68,0.279-4.977
							c163.063-145.704,239.68-280.88,275.238-368.622c38.51-95.023,38.491-156.407,38.486-157.015
							c-0.016-1.947,1.551-3.537,3.495-3.553c0.01,0,0.021,0,0.029,0c1.933,0,3.508,1.557,3.525,3.493
							c0.022,2.53,0.095,63.06-38.816,159.266c-35.811,88.542-112.981,224.898-277.259,371.688
							C1483.119,1499.927,1482.279,1500.223,1481.444,1500.223z"/>
					</g>
					<g style="opacity:0.7;">
						<path style="fill:#FFFFFF;" d="M1403.001,1815.255c-0.785,0-1.573-0.26-2.229-0.795
							c-91.023-74.367-160.23-158.721-205.702-250.72c-36.401-73.649-57.752-152.318-63.454-233.82
							c-9.714-138.788,29.975-239.154,30.376-240.151c0.73-1.806,2.781-2.677,4.587-1.952c1.806,0.727,2.68,2.78,1.953,4.586
							c-0.398,0.985-39.539,100.105-29.861,237.354c8.924,126.569,62.414,312.454,266.562,479.243
							c1.508,1.232,1.731,3.453,0.499,4.96C1405.036,1814.814,1404.022,1815.255,1403.001,1815.255z"/>
					</g>
					<g style="opacity:0.7;">
						<path style="fill:#FFFFFF;" d="M1254.032,2335.747c-1.525,0-2.929-0.997-3.38-2.533c-0.549-1.868,0.521-3.826,2.389-4.374
							c240.437-70.542,365.82-198.713,428.663-293.815c67.991-102.89,79.373-190.018,79.479-190.887
							c0.239-1.932,2.017-3.305,3.931-3.067c1.931,0.238,3.305,1.997,3.067,3.929c-0.11,0.885-11.703,89.656-80.596,193.912
							c-63.492,96.083-190.076,225.551-432.558,296.692C1254.695,2335.701,1254.361,2335.747,1254.032,2335.747z"/>
					</g>
					<g style="opacity:0.7;">
						<path style="fill:#FFFFFF;" d="M1563.796,895.765c-0.952,0-1.898-0.382-2.594-1.135
							c-137.518-149.121-154.265-304.717-144.098-408.988c11.013-112.938,55.196-191.758,55.64-192.542
							c0.964-1.692,3.119-2.284,4.805-1.323c1.694,0.961,2.286,3.113,1.325,4.805c-0.439,0.772-43.969,78.512-54.781,190.033
							c-9.964,102.761,6.635,256.133,142.293,403.235c1.318,1.431,1.229,3.661-0.203,4.981
							C1565.507,895.456,1564.65,895.765,1563.796,895.765z"/>
					</g>
				</g>
			</g>
		</g>
		<g>
			<g>
				<g>
					<defs>
						<path id="SVGID_00000116229465003205976160000018236543258130677935_" d="M1539.785,3150.622
							c26.285,0.768,84.144-20.732,96.916-32.556c84.995-78.681,253.699-215.659,265.792-337.501
							c2.065-20.809-87.024-54.604-96.925-75.58c-51.571-35.334-71.652-44.392-104.178-102.068
							c-96.024-170.273,222.973-410.567-79.767-561.03c-221.753-110.211-431.659-61.17-348.917-419.477
							c82.741-358.307-99.526-1064.21-522.296-872.346c-242.631,110.112-68.762,453.662-217.885,662.941
							c-141.705,198.869-78.443,391.214,130.349,557.308c208.791,166.093,70.392,246.228-28.927,440.838
							c-119.304,233.77,252.955,337.775,428.912,371.131C1204.554,2809.142,1547.236,2973.135,1539.785,3150.622z"/>
					</defs>
					
						<linearGradient id="SVGID_00000055688330667450419520000010918794895450739380_" gradientUnits="userSpaceOnUse" x1="1102.9512" y1="2850.2236" x2="1289.8564" y2="1249.6282">
						<stop  offset="0" style="stop-color:#AA80F9"/>
						<stop  offset="0.9964" style="stop-color:#6165D7"/>
					</linearGradient>
					
						<use xlink:href="#SVGID_00000116229465003205976160000018236543258130677935_"  style="overflow:visible;fill:url(#SVGID_00000055688330667450419520000010918794895450739380_);"/>
					<clipPath id="SVGID_00000134941129310363593190000008448439858693073301_">
						<use xlink:href="#SVGID_00000116229465003205976160000018236543258130677935_"  style="overflow:visible;"/>
					</clipPath>
					<g style="opacity:0.7;clip-path:url(#SVGID_00000134941129310363593190000008448439858693073301_);">
						<g>
							<path style="fill:#FCFDFE;" d="M1764.722,2959.204l3.207-4.578c-705.349-494.269-1041.012-1353.463-897.9-2298.34
								l-5.531-0.84c-67.823,447.804-26.009,893.301,120.926,1288.325C1139.895,2359.066,1409.373,2710.196,1764.722,2959.204z"/>
							<path style="fill:#FCFDFE;" d="M573.213,2502.625c232.596-37.36,602.651,19.482,824.913,126.716l2.428-5.037
								c-223.136-107.654-594.676-164.714-828.226-127.201L573.213,2502.625z"/>
							<path style="fill:#FCFDFE;" d="M1627.371,2860.592l4.351-3.514c-80.534-99.843-107.499-236.565-80.144-406.365
								c20.056-124.505,68.308-263.566,143.419-413.327l-5-2.505c-75.363,150.269-123.795,289.875-143.94,414.941
								C1518.438,2621.256,1545.795,2759.459,1627.371,2860.592z"/>
							<path style="fill:#FCFDFE;" d="M966.747,1886.892l4.528-3.283c-142.123-196.006-382.259-280.591-558.683-317.037l-1.131,5.48
								C586.917,1608.295,825.679,1692.337,966.747,1886.892z"/>
							<path style="fill:#FCFDFE;" d="M846.106,1345.956l5.573,0.476c23.263-271.756,215.51-483.908,328.034-586.182l-3.761-4.14
								C1062.821,858.938,869.533,1072.296,846.106,1345.956z"/>
						</g>
					</g>
				</g>
			</g>
		</g>
		<g>
			<g>
				<path style="fill:#BFC8D6;" d="M3224.295,2965.622l-2643.222-22.848v67.602c0,18.348,11.529,33.95,27.142,36.731
					l747.424,133.121c8.87,1.58,17.865,1.999,26.816,1.249l1813.116-151.779c16.187-1.355,28.724-17.005,28.724-35.857V2965.622z"/>
				<g>
					<path style="fill:#BFC8D6;" d="M2251.585,2857.287l-1679.981,123.67c-30.062,2.213-54.505-21.302-54.505-52.528V1677.395
						c0-31.226,24.443-56.54,54.505-56.54l59.433,34.256l1620.548-34.256c24.767,0,44.792,22.883,44.792,51.111v1130.912
						C2296.376,2831.105,2276.352,2855.463,2251.585,2857.287z"/>
					<path style="fill:#FFFFFF;" d="M2278.372,2857.287l-1679.981,123.67c-30.063,2.213-54.505-21.302-54.505-52.528V1677.395
						c0-31.226,24.442-56.54,54.505-56.54h1679.981c24.767,0,44.791,22.883,44.791,51.111v1130.912
						C2323.163,2831.105,2303.139,2855.463,2278.372,2857.287z"/>
					<path style="fill:#D8DEE8;" d="M2226.036,2777.555L661.309,2884.979c-24.464,1.679-44.344-17.621-44.344-43.113V1746.585
						c0-25.492,19.88-46.243,44.344-46.349l1564.727-6.745c20.431-0.088,36.957,18.663,36.957,41.882v997.606
						C2262.993,2756.195,2246.467,2776.153,2226.036,2777.555z"/>
					<g>
						<polygon style="fill:#FFFFFF;" points="1216.264,1803.027 793.981,1804.127 793.919,1763.866 1216.204,1764.002 						"/>
						<polygon style="fill:#FFFFFF;" points="1415.114,1791.371 1317.563,1791.542 1317.52,1764.035 1415.072,1764.067 						"/>
						<polygon style="fill:#FFFFFF;" points="1415.172,1829.308 1317.622,1829.761 1317.579,1802.254 1415.13,1802.004 						"/>
						<polygon style="fill:#FFFFFF;" points="1901.31,1827.048 1522.855,1828.807 1522.813,1801.727 1901.269,1800.756 						"/>
						<polygon style="fill:#FFFFFF;" points="1963.425,1863.111 1588.735,1865.936 1588.694,1838.993 1963.384,1836.948 						"/>
						<polygon style="fill:#FFFFFF;" points="1963.481,1899.463 1588.793,1903.371 1588.751,1876.428 1963.44,1873.3 						"/>
						<polygon style="fill:#FFFFFF;" points="1963.537,1935.814 1588.851,1940.806 1588.809,1913.863 1963.496,1909.651 						"/>
						<polygon style="fill:#FFFFFF;" points="1415.231,1867.244 1317.681,1867.979 1317.638,1840.472 1415.189,1839.94 						"/>
						<polygon style="fill:#FFFFFF;" points="1415.29,1905.181 1317.74,1906.198 1317.697,1878.691 1415.248,1877.876 						"/>
						<polygon style="fill:#FFFFFF;" points="1415.348,1943.117 1317.799,1944.417 1317.756,1916.909 1415.306,1915.813 						"/>
						<polygon style="fill:#FFFFFF;" points="1415.407,1981.053 1317.858,1982.635 1317.816,1955.128 1415.365,1953.749 						"/>
						<polygon style="fill:#FFFFFF;" points="1676.806,1976.816 1436.694,1980.708 1436.652,1953.448 1676.764,1950.055 						"/>
						<polygon style="fill:#FFFFFF;" points="1415.466,2018.99 1317.917,2020.853 1317.875,1993.346 1415.423,1991.686 						"/>
						<polygon style="fill:#FFFFFF;" points="1415.524,2056.926 1317.976,2059.072 1317.934,2031.565 1415.482,2029.622 						"/>
						<polygon style="fill:#FFFFFF;" points="1415.583,2094.863 1318.035,2097.29 1317.993,2069.783 1415.541,2067.559 						"/>
						<polygon style="fill:#FFFFFF;" points="1789.36,2011.847 1523.146,2016.933 1523.104,1989.853 1789.319,1985.321 						"/>
						<polygon style="fill:#FFFFFF;" points="1927.72,2045.661 1589.025,2053.11 1588.983,2026.167 1927.679,2019.422 						"/>
						<polygon style="fill:#FFFFFF;" points="1927.776,2082.116 1589.083,2090.545 1589.041,2063.602 1927.735,2055.878 						"/>
						<polygon style="fill:#FFFFFF;" points="1415.641,2132.799 1318.094,2135.509 1318.052,2108.002 1415.599,2105.495 						"/>
						<polygon style="fill:#FFFFFF;" points="1415.7,2170.736 1318.153,2173.727 1318.111,2146.22 1415.658,2143.431 						"/>
						<polygon style="fill:#FFFFFF;" points="1415.759,2208.672 1318.213,2211.946 1318.17,2184.439 1415.717,2181.368 						"/>
						<polygon style="fill:#FFFFFF;" points="1415.817,2246.608 1318.272,2250.164 1318.229,2222.657 1415.775,2219.304 						"/>
						<polygon style="fill:#FFFFFF;" points="1415.876,2284.545 1318.331,2288.383 1318.288,2260.875 1415.834,2257.241 						"/>
						<polygon style="fill:#FFFFFF;" points="1415.935,2322.481 1318.39,2326.601 1318.347,2299.094 1415.892,2295.177 						"/>
						<polygon style="fill:#FFFFFF;" points="1415.993,2360.418 1318.449,2364.82 1318.406,2337.313 1415.951,2333.114 						"/>
						<polygon style="fill:#FFFFFF;" points="1416.052,2398.354 1318.508,2403.038 1318.465,2375.531 1416.01,2371.05 						"/>
						<polygon style="fill:#FFFFFF;" points="1416.11,2436.291 1318.567,2441.257 1318.524,2413.75 1416.068,2408.987 						"/>
						<polygon style="fill:#FFFFFF;" points="1416.169,2474.227 1318.626,2479.475 1318.583,2451.968 1416.127,2446.923 						"/>
						<polygon style="fill:#FFFFFF;" points="1416.228,2512.164 1318.685,2517.694 1318.642,2490.186 1416.186,2484.86 						"/>
						<polygon style="fill:#FFFFFF;" points="1416.286,2550.1 1318.744,2555.912 1318.702,2528.405 1416.244,2522.796 						"/>
						<polygon style="fill:#FFFFFF;" points="1416.345,2588.037 1318.803,2594.131 1318.761,2566.623 1416.303,2560.732 						"/>
						<polygon style="fill:#FFFFFF;" points="1416.404,2625.973 1318.862,2632.349 1318.82,2604.842 1416.361,2598.669 						"/>
						<polygon style="fill:#FFFFFF;" points="1416.462,2663.909 1318.921,2670.568 1318.879,2643.06 1416.42,2636.605 						"/>
						<polygon style="fill:#FFFFFF;" points="1416.521,2701.846 1318.98,2708.786 1318.938,2681.279 1416.479,2674.542 						"/>
						<polygon style="fill:#FFFFFF;" points="1416.58,2739.782 1319.039,2747.005 1318.997,2719.497 1416.537,2712.478 						"/>
						<polygon style="fill:#FFFFFF;" points="1416.638,2777.719 1319.099,2785.223 1319.056,2757.716 1416.596,2750.415 						"/>
						<polygon style="fill:#FFFFFF;" points="1701.786,1790.868 1435.739,1791.335 1435.697,1764.074 1701.745,1764.16 						"/>
						<polygon style="fill:#FFFFFF;" points="1902.439,2557.667 1524.018,2581.31 1523.976,2554.229 1902.398,2531.375 						"/>
						<polygon style="fill:#FFFFFF;" points="1964.548,2590.143 1589.892,2614.633 1589.851,2587.689 1964.508,2563.979 						"/>
						<polygon style="fill:#FFFFFF;" points="1964.604,2626.494 1589.95,2652.067 1589.909,2625.124 1964.564,2600.33 						"/>
						<polygon style="fill:#FFFFFF;" points="2126.108,2651.358 1761.156,2677.325 1761.115,2650.738 2126.069,2625.531 						"/>
						<polygon style="fill:#FFFFFF;" points="2126.164,2687.243 1761.213,2714.265 1761.172,2687.678 2126.124,2661.416 						"/>
						<polygon style="fill:#FFFFFF;" points="2126.219,2723.128 1761.27,2751.205 1761.229,2724.618 2126.179,2697.3 						"/>
						<polygon style="fill:#FFFFFF;" points="1702.933,2533.021 1436.909,2548.871 1436.867,2521.61 1702.892,2506.313 						"/>
						<polygon style="fill:#FFFFFF;" points="1901.818,2155.827 1523.379,2167.433 1523.337,2140.353 1901.777,2129.534 						"/>
						<polygon style="fill:#FFFFFF;" points="1963.93,2190.275 1589.256,2202.85 1589.214,2175.906 1963.89,2164.112 						"/>
						<polygon style="fill:#FFFFFF;" points="1963.986,2226.627 1589.314,2240.284 1589.272,2213.341 1963.946,2200.463 						"/>
						<polygon style="fill:#FFFFFF;" points="1964.043,2262.979 1589.372,2277.719 1589.33,2250.776 1964.002,2236.815 						"/>
						<polygon style="fill:#FFFFFF;" points="1677.323,2311.442 1437.221,2321.583 1437.179,2294.323 1677.282,2284.682 						"/>
						<polygon style="fill:#FFFFFF;" points="1789.873,2343.546 1523.669,2355.559 1523.627,2328.479 1789.832,2317.02 						"/>
						<polygon style="fill:#FFFFFF;" points="1928.227,2373.761 1589.545,2390.024 1589.504,2363.08 1928.186,2347.523 						"/>
						<polygon style="fill:#FFFFFF;" points="1928.283,2410.217 1589.603,2427.458 1589.562,2400.515 1928.243,2383.978 						"/>
						<polygon style="fill:#FFFFFF;" points="2003.421,2442.633 1668.817,2460.635 1668.776,2433.856 2003.38,2416.551 						"/>
						<polygon style="fill:#FFFFFF;" points="2003.477,2478.871 1668.875,2497.841 1668.833,2471.062 2003.436,2452.789 						"/>
						<polygon style="fill:#FFFFFF;" points="1702.302,2124.836 1436.266,2132.226 1436.223,2104.965 1702.261,2098.129 						"/>
						<polygon style="fill:#FFFFFF;" points="1216.358,1864.004 974.654,1865.74 974.593,1826.007 1216.298,1824.979 						"/>
						<polygon style="fill:#FFFFFF;" points="912.138,1866.189 957.661,1865.862 957.6,1826.079 912.076,1826.273 						"/>
						<polygon style="fill:#FFFFFF;" points="1216.445,1920.102 974.742,1922.856 974.681,1883.123 1216.385,1881.077 						"/>
						<polygon style="fill:#FFFFFF;" points="912.226,1923.568 957.75,1923.05 957.688,1883.267 912.165,1883.652 						"/>
						<polygon style="fill:#FFFFFF;" points="1216.532,1976.2 974.831,1979.972 974.769,1940.239 1216.471,1937.175 						"/>
						<polygon style="fill:#FFFFFF;" points="912.315,1980.948 957.838,1980.238 957.777,1940.455 912.253,1941.032 						"/>
						<polygon style="fill:#FFFFFF;" points="1217.147,2374.4 794.892,2393.613 794.83,2353.351 1217.087,2335.375 						"/>
						<polygon style="fill:#FFFFFF;" points="1217.241,2435.376 975.553,2447.48 975.492,2407.747 1217.181,2396.351 						"/>
						<polygon style="fill:#FFFFFF;" points="913.041,2450.611 958.562,2448.331 958.5,2408.548 912.979,2410.695 						"/>
						<polygon style="fill:#FFFFFF;" points="1217.328,2491.474 975.641,2504.596 975.58,2464.863 1217.268,2452.449 						"/>
						<polygon style="fill:#FFFFFF;" points="913.13,2507.99 958.65,2505.519 958.588,2465.736 913.068,2468.074 						"/>
						<polygon style="fill:#FFFFFF;" points="1217.415,2547.573 975.73,2561.712 975.668,2521.979 1217.354,2508.548 						"/>
						<polygon style="fill:#FFFFFF;" points="913.218,2565.369 958.738,2562.706 958.677,2522.924 913.157,2525.453 						"/>
						<polygon style="fill:#FFFFFF;" points="1216.619,2032.679 794.347,2041.059 794.285,2000.797 1216.559,1993.654 						"/>
						<polygon style="fill:#FFFFFF;" points="1216.713,2093.655 975.016,2099.558 974.954,2059.825 1216.653,2054.63 						"/>
						<polygon style="fill:#FFFFFF;" points="912.501,2101.085 958.023,2099.973 957.962,2060.19 912.439,2061.169 						"/>
						<polygon style="fill:#FFFFFF;" points="1216.8,2149.753 975.104,2156.675 975.042,2116.941 1216.74,2110.729 						"/>
						<polygon style="fill:#FFFFFF;" points="912.589,2158.465 958.112,2157.161 958.05,2117.378 912.528,2118.549 						"/>
						<polygon style="fill:#FFFFFF;" points="1216.974,2262.678 975.281,2271.648 975.22,2231.916 1216.914,2223.653 						"/>
						<polygon style="fill:#FFFFFF;" points="912.768,2273.969 958.289,2272.279 958.228,2232.496 912.706,2234.052 						"/>
						<polygon style="fill:#FFFFFF;" points="1217.061,2318.777 975.37,2328.765 975.308,2289.032 1217.001,2279.752 						"/>
						<polygon style="fill:#FFFFFF;" points="912.857,2331.348 958.378,2329.467 958.316,2289.684 912.795,2291.432 						"/>
						<polygon style="fill:#FFFFFF;" points="1216.886,2205.852 975.192,2213.791 975.131,2174.058 1216.826,2166.827 						"/>
						<polygon style="fill:#FFFFFF;" points="912.678,2215.844 958.2,2214.349 958.138,2174.566 912.616,2175.928 						"/>
						<polygon style="fill:#FFFFFF;" points="1217.501,2603.652 795.258,2630.133 795.196,2589.871 1217.441,2564.627 						"/>
						<polygon style="fill:#FFFFFF;" points="1217.596,2664.628 975.914,2680.892 975.852,2641.159 1217.535,2625.603 						"/>
						<polygon style="fill:#FFFFFF;" points="913.403,2685.098 958.923,2682.035 958.861,2642.253 913.342,2645.182 						"/>
						<polygon style="fill:#FFFFFF;" points="1217.682,2720.727 976.002,2738.008 975.941,2698.275 1217.622,2681.702 						"/>
						<polygon style="fill:#FFFFFF;" points="913.492,2742.478 959.011,2739.223 958.95,2699.44 913.43,2702.562 						"/>
						<polygon style="fill:#FFFFFF;" points="1217.769,2776.825 976.091,2795.124 976.029,2755.391 1217.709,2737.8 						"/>
						<polygon style="fill:#FFFFFF;" points="913.581,2799.857 959.099,2796.411 959.038,2756.628 913.519,2759.941 						"/>
						<polygon style="fill:#FFFFFF;" points="1269.08,2773.134 1259.78,2773.838 1258.219,1764.016 1267.52,1764.019 						"/>
					</g>
					<path style="fill:#FFFFFF;" d="M1497.714,1655.074c0,11.624-8.647,21.075-19.324,21.109
						c-10.691,0.034-19.367-9.383-19.367-21.033c0-11.651,8.676-21.101,19.367-21.11
						C1489.067,1634.031,1497.714,1643.449,1497.714,1655.074z"/>
					<path style="opacity:0.48;fill:#FFFFFF;" d="M598.385,2980.957l1671.482-123.044l8.506-0.626
						c11.364-0.837,21.697-6.454,29.589-14.975c-120.282-6.582-194.991-49.267-243.184-93.373
						c-96.781-88.574-79.994-175.92-184.362-234.156c-130.174-72.637-232.53,19.403-331.311-71.408
						c-59.886-55.056-30.485-96.112-104.175-178.386c-81.617-91.126-134.754-60.494-216.779-142.508
						c-103.713-103.701-51.842-184.383-141.179-258.837c-108.378-90.324-225.258-6.724-328.425-93.347
						c-44.497-37.361-68.913-91.677-81.662-149.443h-78.493c-30.063,0-54.506,25.314-54.506,56.54v1251.034
						C543.886,2959.653,568.324,2983.165,598.385,2980.957z"/>
				</g>
				
					<linearGradient id="SVGID_00000151536567825025884930000002049385077449690760_" gradientUnits="userSpaceOnUse" x1="581.0722" y1="2985.1152" x2="3224.2947" y2="2985.1152">
					<stop  offset="0.494" style="stop-color:#EBEFF2"/>
					<stop  offset="1" style="stop-color:#FFFFFF"/>
				</linearGradient>
				<path style="fill:url(#SVGID_00000151536567825025884930000002049385077449690760_);" d="M2357.526,2850.427L581.072,2980.601
					l774.567,137.955c8.87,1.58,17.865,1.999,26.816,1.25l1841.84-154.184l-838.51-114.311
					C2376.407,2850.033,2366.949,2849.737,2357.526,2850.427z"/>
				<polygon style="fill:#D8DEE8;" points="840.284,2981.721 2319.235,2871.732 2776.957,2933.628 1310.747,3051.202 				"/>
			</g>
		</g>
		<g>
			<g>
				
					<linearGradient id="SVGID_00000003062558884536299190000005012279930187373498_" gradientUnits="userSpaceOnUse" x1="2153.8037" y1="761.6068" x2="495.9665" y2="4077.2742">
					<stop  offset="0.0036" style="stop-color:#E38DDD"/>
					<stop  offset="1" style="stop-color:#9571F6"/>
				</linearGradient>
				<path style="fill:url(#SVGID_00000003062558884536299190000005012279930187373498_);" d="M2361.074,1153.618l-1529.345-49.324
					c-52.235-1.685-94.804,38.777-94.804,90.382v1490.828c0,51.605,42.569,90.837,94.804,87.644l1529.346-93.497
					c43.434-2.655,78.474-42.667,78.474-89.381V1240.734C2439.549,1194.019,2404.508,1155.019,2361.074,1153.618z"/>
				<path style="opacity:0.74;fill:#FFFFFF;" d="M831.729,2743.469c-35.523,2.113-64.424-24.597-64.424-59.666V1195.498
					c0-35.068,28.901-62.613,64.424-61.526l1529.346,46.784c29.591,0.905,53.5,27.454,53.5,59.302v1351.607
					c0,31.847-23.909,59.086-53.5,60.846L831.729,2743.469z"/>
				
					<linearGradient id="SVGID_00000102518509069744459110000002780047996066360975_" gradientUnits="userSpaceOnUse" x1="1228.3716" y1="-193.9424" x2="1514.3842" y2="950.1115">
					<stop  offset="0.0036" style="stop-color:#E38DDD"/>
					<stop  offset="1" style="stop-color:#9571F6"/>
				</linearGradient>
				<path style="fill:url(#SVGID_00000102518509069744459110000002780047996066360975_);" d="M2361.074,1153.618l-1529.345-49.324
					c-52.234-1.685-94.805,38.777-94.805,90.382v67.029l1702.626,39.705v-60.676
					C2439.55,1194.019,2404.509,1155.019,2361.074,1153.618z"/>
				<path style="fill:#FFFFFF;" d="M905.345,1190.265c0,16.731-13.715,29.94-30.663,29.502
					c-16.98-0.439-30.769-14.406-30.769-31.195s13.789-29.996,30.769-29.499C891.63,1159.568,905.345,1173.533,905.345,1190.265z"/>
				<path style="fill:#FFFFFF;" d="M1012.21,1193.209c0,16.631-13.551,29.763-30.296,29.33c-16.776-0.434-30.4-14.314-30.4-31.002
					c0-16.688,13.623-29.818,30.4-29.327C998.659,1162.7,1012.21,1176.578,1012.21,1193.209z"/>
				<path style="fill:#FFFFFF;" d="M1117.799,1196.119c0,16.532-13.39,29.587-29.935,29.159
					c-16.576-0.428-30.037-14.224-30.037-30.812c0-16.588,13.461-29.641,30.037-29.156
					C1104.41,1165.794,1117.799,1179.587,1117.799,1196.119z"/>
				<g style="opacity:0.5;">
					<path style="fill:#FFFFFF;" d="M1773.054,1720.243c-178.276-256.118-488.606-172.63-686.081-457.689
						c-35.71-51.548-59.957-104.051-76.596-152.499l-178.648-5.762c-52.235-1.685-94.805,38.777-94.805,90.383v1490.827
						c0,51.605,42.569,90.837,94.804,87.644l1474.286-90.131c-33.213-47.211-323.584-219.751-398.916-491.707
						C1838.09,1942.184,1880.257,1874.254,1773.054,1720.243z"/>
				</g>
			</g>
			<g>
				<g>
					<path style="opacity:0.5;fill:#FFFFFF;" d="M1635.299,2185.407c-68.001,1.226-135.725-14.473-195.757-45.568
						c-64.811-33.534-119.094-83.79-156.723-145.336c-36.471-59.669-55.808-128.104-55.808-197.724
						c0-218.35,185.482-391.157,408.289-385.351c217.291,5.662,390.141,179.911,390.141,388.556S1852.591,2181.49,1635.299,2185.407
						z"/>
					<path style="fill:#FFFFFF;" d="M1991.691,1799.848c0,190.889-157.768,348.193-356.391,351.388
						c-64.288,1.034-125.08-14.163-178.272-41.834c-58.977-30.647-108.407-76.601-142.535-132.553
						c-32.17-52.756-50.667-114.252-50.667-179.923c0-198.968,168.252-356.227,371.474-351.327
						C1833.923,1450.388,1991.691,1608.959,1991.691,1799.848z"/>
					
						<linearGradient id="SVGID_00000149380271905668988550000000876949602616729787_" gradientUnits="userSpaceOnUse" x1="1733.5026" y1="1610.2452" x2="1269.3723" y2="2586.7556">
						<stop  offset="0" style="stop-color:#444B8C"/>
						<stop  offset="0.9964" style="stop-color:#26264F"/>
					</linearGradient>
					<path style="fill:url(#SVGID_00000149380271905668988550000000876949602616729787_);" d="M1863.112,1743.31l-0.102,101.386
						c-0.035,9.713-3.948,18.988-10.956,25.837l-88.292,86.575c-7.12,6.959-16.786,10.916-26.845,10.906l-133.631,0.006
						c0,0-91.78,88.613-146.258,141.383c-58.977-30.647-108.407-76.601-142.535-132.553
						c54.994-52.781,149.147-143.477,149.147-143.477l-0.538-131.436c-0.037-9.973,4.095-19.522,11.453-26.48l91.203-86.52
						c7.242-6.846,17.031-10.594,27.196-10.427l105.817,1.814c8.74,0.144,16.633,5.411,19.984,13.321
						c3.315,7.941,1.465,16.958-4.711,22.888l-100.826,96.602c-8.976,8.581-9.013,22.684-0.036,31.443l36.094,35.287l9.95,9.708
						l35.907,35.137c8.884,8.668,23.275,8.697,32.135,0.081l99.525-96.581c6.097-5.931,15.255-7.643,23.235-4.335
						C1857.962,1727.18,1863.147,1734.845,1863.112,1743.31z"/>
				</g>
				<path style="fill:#FFFFFF;" d="M2164.1,2479.122c0,21.965-17.824,40.451-39.863,41.292l-997.386,38.077
					c-24.756,0.945-44.875-17.224-44.875-40.585v-158.618c0-23.361,20.119-42.796,44.875-43.408l997.386-24.681
					c22.039-0.545,39.863,16.819,39.863,38.784V2479.122z"/>
			</g>
		</g>
		<g>
			
				<linearGradient id="SVGID_00000046320214611500602740000000487498132926439591_" gradientUnits="userSpaceOnUse" x1="1060.031" y1="2997.6665" x2="1907.403" y2="2997.6665">
				<stop  offset="0" style="stop-color:#FFC444"/>
				<stop  offset="0.9964" style="stop-color:#F36F56"/>
			</linearGradient>
			<path style="fill:url(#SVGID_00000046320214611500602740000000487498132926439591_);" d="M1907.403,2994.6v30.908
				c0,7.913-4.067,14.45-9.439,15.164l-482.225,43.702c-3.578,0.497-7.175,0.405-10.731-0.214c-0.928-0.17-1.857-0.37-2.785-0.599
				l-335.991-63.333c-3.574-0.924-6.2-5.599-6.2-11.027v-32.656l356.49-44.185l45.889-21.719l45.628,6.573l26.944-5.164
				l61.582,17.923L1907.403,2994.6z"/>
			
				<linearGradient id="SVGID_00000039821145465967120590000005013846651496338350_" gradientUnits="userSpaceOnUse" x1="1692.9038" y1="2872.406" x2="1549.6853" y2="3267.1597">
				<stop  offset="0" style="stop-color:#FFC444"/>
				<stop  offset="0.5917" style="stop-color:#F8924F"/>
				<stop  offset="0.9964" style="stop-color:#F36F56"/>
			</linearGradient>
			<path style="opacity:0.3;fill:url(#SVGID_00000039821145465967120590000005013846651496338350_);" d="M1907.403,2994.6v30.908
				c0,7.913-4.067,14.45-9.439,15.164l-482.204,43.699c-3.578,0.497-8.041,0.38-10.709-0.217v-166.499l57.381-7.017l45.617,6.573
				l26.939-5.164l61.58,17.923L1907.403,2994.6z"/>
			
				<linearGradient id="SVGID_00000021838282400779238550000012548899536000023185_" gradientUnits="userSpaceOnUse" x1="1544.941" y1="2816.094" x2="1393.2324" y2="3234.2493">
				<stop  offset="0" style="stop-color:#FFC444"/>
				<stop  offset="0.5917" style="stop-color:#F8924F"/>
				<stop  offset="0.9964" style="stop-color:#F36F56"/>
			</linearGradient>
			<path style="fill:url(#SVGID_00000021838282400779238550000012548899536000023185_);" d="M1534.983,2912.048l-474.952,63.044
				l342.575,64.526c4.216,1.078,8.502,1.33,12.747,0.749l492.05-45.767L1534.983,2912.048z"/>
			<g>
				
					<linearGradient id="SVGID_00000168838254451321948880000005874458620825972359_" gradientUnits="userSpaceOnUse" x1="1486.783" y1="2188.0488" x2="1455.9465" y2="3192.1653">
					<stop  offset="0" style="stop-color:#FFC444"/>
					<stop  offset="0.9964" style="stop-color:#F36F56"/>
				</linearGradient>
				<path style="fill:url(#SVGID_00000168838254451321948880000005874458620825972359_);" d="M1709.091,2968.993
					c0,22.621-71.186,40.204-169.45,44.768c-24.807,1.142-51.323,1.459-78.836,0.825c-135.243-3.12-243.916-28.276-243.916-56.128
					c0-0.632,0.075-2.003,0.187-2.001l-0.187-0.004l0.561-1.343c0.13-0.457,0.299-0.872,0.505-1.298l31.192-81.539l37.667-98.389
					l52.751-137.897l40.372-105.556l50.222-131.252c6.284-16.433,17.927-26.649,30.514-26.649c1.712,0,3.386,0.174,5.041,0.551
					c10.621,2.319,20.108,11.888,25.558,26.129l50.646,132.175l40.446,106.948l53.368,140.663v0.029l38.318,101.066v0.029
					l0.61,0.059l31.911,82.134C1707.944,2964.504,1709.091,2966.742,1709.091,2968.993z"/>
				<path style="fill:#FFFFFF;" d="M1674.658,2880.178c-30.793,10.29-80.017,17.699-138.946,20.455
					c-23.751,1.118-48.876,1.479-75.054,0.982c-90.868-1.727-169.653-13.418-211.584-29.321l37.703-98.4
					c44.118,9.924,105.609,16.616,173.953,17.645c22.1,0.333,43.635,0.048,64.143-0.777c43.156-1.708,81.207-5.85,111.185-11.733
					l37.991,101.061v0.029L1674.658,2880.178z"/>
				<path style="fill:#FFFFFF;" d="M1582.824,2638.334c-23.504,2.539-49.34,4.265-76.751,5.044
					c-14.686,0.437-29.814,0.58-45.267,0.429c-44.229-0.431-85.595-3.26-121.241-7.815l40.372-105.559
					c25.268,1.994,52.48,3.135,80.868,3.299c10.028,0.058,19.91-0.001,29.609-0.205c17.795-0.333,35.04-1.046,51.503-2.143
					L1582.824,2638.334z"/>
				
					<linearGradient id="SVGID_00000055688284395775525660000009140304799342605712_" gradientUnits="userSpaceOnUse" x1="1216.8894" y1="2693.719" x2="1540.4982" y2="2693.719">
					<stop  offset="0" style="stop-color:#FFC444"/>
					<stop  offset="0.9964" style="stop-color:#F36F56"/>
				</linearGradient>
				<path style="opacity:0.2;fill:url(#SVGID_00000055688284395775525660000009140304799342605712_);" d="M1539.641,3013.761
					c-24.807,1.142-51.323,1.459-78.836,0.825c-135.243-3.12-243.916-28.276-243.916-56.128c0-0.632,0.075-2.003,0.187-2.001
					l-0.187-0.004l0.561-1.343c0.13-0.457,0.299-0.872,0.505-1.298l31.192-81.539l37.667-98.389l52.751-137.897l40.372-105.556
					l50.222-131.252c6.284-16.433,17.927-26.649,30.514-26.649c1.712,0,3.386,0.174,5.041,0.551
					c5.367,33.412,14.545,91.716,24.701,160.446c5.09,34.601,10.43,71.857,15.658,109.851c6.737,49.14,13.268,99.608,18.809,147.384
					c4.529,39.154,8.39,76.508,11.125,109.871C1540.004,2948.931,1541.649,2988.881,1539.641,3013.761z"/>
			</g>
		</g>
		<g>
			
				<linearGradient id="SVGID_00000046335353050716542060000003183221094026331803_" gradientUnits="userSpaceOnUse" x1="4049.9167" y1="1935.7489" x2="4043.095" y2="2076.4524" gradientTransform="matrix(1 0 0 1 -1183.764 0)">
				<stop  offset="0" style="stop-color:#FFC444"/>
				<stop  offset="0.9964" style="stop-color:#F36F56"/>
			</linearGradient>
			<path style="fill:url(#SVGID_00000046335353050716542060000003183221094026331803_);" d="M2871.593,1949.455
				c0,0-12.401-6.833-16.008-15.509c-3.606-8.676-3.656-22.174,8.619-29.268c12.274-7.095-13.443-13.716-9.016-19.48
				c4.426-5.764,18.946-11.456,18.946-11.456s8.8,36.782,6.609,42.298c-2.191,5.518-14.018,6.189-3.018,21.964L2871.593,1949.455z"
				/>
			
				<linearGradient id="SVGID_00000064331074114509089450000010868975117342483859_" gradientUnits="userSpaceOnUse" x1="3610.812" y1="3210.2175" x2="3659.332" y2="3210.2175" gradientTransform="matrix(1 0 0 1 -1183.764 0)">
				<stop  offset="0" style="stop-color:#FFC444"/>
				<stop  offset="0.9964" style="stop-color:#F36F56"/>
			</linearGradient>
			<path style="fill:url(#SVGID_00000064331074114509089450000010868975117342483859_);" d="M2475.568,3195.481
				c-0.968,0.638-18.604,24.503-26.581,40.101l-21.939-11.785c0,0,12.367-4.403,18.583-28.316
				C2451.847,3171.568,2475.568,3195.481,2475.568,3195.481z"/>
			
				<linearGradient id="SVGID_00000070832492023406100700000003750481404438192812_" gradientUnits="userSpaceOnUse" x1="3552.208" y1="3223.9575" x2="3638.3896" y2="3223.9575" gradientTransform="matrix(1 0 0 1 -1183.764 0)">
				<stop  offset="0" style="stop-color:#444B8C"/>
				<stop  offset="0.9964" style="stop-color:#26264F"/>
			</linearGradient>
			<path style="fill:url(#SVGID_00000070832492023406100700000003750481404438192812_);" d="M2417.896,3249.864
				c0,0,13.752,4.652,19.475,5.069l0.577,0.042c3.237,0.236,6.375-1.187,8.315-3.789c3.381-4.536,8.268-11.404,8.361-13.323
				c0.142-2.938-7.797-8.969-14.874-11.581c-7.076-2.611-8.735-6.111-21.854-16.592c-13.119-10.481-35.284-22.925-45.663-13.345
				C2361.856,3205.925,2371.441,3229.789,2417.896,3249.864z"/>
			
				<linearGradient id="SVGID_00000042005473423166707160000004555286351179230603_" gradientUnits="userSpaceOnUse" x1="3607.3367" y1="3192.5793" x2="3597.8018" y2="3214.6189" gradientTransform="matrix(1 0 0 1 -1183.764 0)">
				<stop  offset="0" style="stop-color:#444B8C"/>
				<stop  offset="0.9964" style="stop-color:#26264F"/>
			</linearGradient>
			<path style="fill:url(#SVGID_00000042005473423166707160000004555286351179230603_);" d="M2379.838,3197.859
				c11.398,4.538,14.835,17.363,34.61,30.378c11.224,7.385,25.062,14.168,34.934,18.655c2.661-3.766,5.175-7.659,5.241-9.029
				c0.142-2.938-7.797-8.968-14.874-11.579c-7.076-2.613-8.735-6.113-21.854-16.593c-13.119-10.48-35.284-22.924-45.662-13.345
				c-2.645,2.44-3.984,5.813-3.757,9.809C2370.528,3200.619,2374.036,3195.549,2379.838,3197.859z"/>
			<g>
				
					<linearGradient id="SVGID_00000122701788283052171200000001311047081294218936_" gradientUnits="userSpaceOnUse" x1="96.1282" y1="1197.2606" x2="931.4935" y2="2614.2075" gradientTransform="matrix(-0.9999 0.0148 0.0148 0.9999 3079.3472 -154.8092)">
					<stop  offset="0" style="stop-color:#311944"/>
					<stop  offset="1" style="stop-color:#893976"/>
				</linearGradient>
				<path style="fill:url(#SVGID_00000122701788283052171200000001311047081294218936_);" d="M2279.369,1687.16l0.675,45.58
					c0.198,13.373,11.412,23.177,25.038,21.901l24.762-2.319c3.428,21.514,9.195,42.056,17.058,61.387l-20.347,13.598
					c-11.687,7.809-15.507,22.989-8.528,33.901l23.765,37.158c6.965,10.892,38.279,16.038,49.932,8.214l3.031-15.595
					c14.081,15.934,30.007,30.145,47.457,42.376l-10.543,19.53c-6.59,12.208-2.359,26.547,9.445,32.025l40.174,18.634
					c11.767,5.458,49.06,4.572,55.617-7.614l-12.347-23.336c20.677,5.945,42.391,9.619,64.848,10.796l0.299,20.195
					c0.196,13.252,11.207,22.877,24.583,21.503l45.517-4.674c13.329-1.369,23.968-13.187,23.773-26.401l-0.299-20.135
					c22.198-5.689,43.531-13.691,63.722-23.714l10.474,16.559c6.795,10.743,45.482,14.55,56.845,6.799l14.714-27.773
					c11.328-7.73,15.026-22.682,8.263-33.411l-10.831-17.18c16.627-15.443,31.682-32.508,44.873-50.882l19.001,9.008
					c11.48,5.443,44.766,6.886,51.16-5.12l2.979-47.652c6.383-11.985,2.28-26.121-9.168-31.585l-19.973-9.534
					c7.016-20.401,11.973-41.587,14.651-63.284l23.846-2.233c13.091-1.226,23.539-12.832,23.345-25.927l-0.661-44.63
					c-0.194-13.095-10.957-22.744-24.049-21.555l-25.25,2.293c-3.889-20.55-9.94-40.165-17.919-58.634l22.476-15.092
					c11.255-7.561,14.928-22.415,8.208-33.191l2.241-44.491c-6.732-10.795-46.506-5.705-57.793,1.838l-23.655,15.808
					c-13.408-14.684-28.422-27.855-44.783-39.296l13.792-25.631c6.427-11.942,2.297-26.175-9.229-31.794l-17.875-23.34
					c-11.562-5.636-47.651,3.639-54.11,15.605l-14.179,26.267c-19.127-5.531-39.162-9.147-59.891-10.611l-0.433-29.256
					c-0.196-13.214-11.156-23.039-24.489-21.948l-45.531,3.725c-13.381,1.094-24.076,12.722-23.88,25.974l0.435,29.339
					c-20.778,4.939-40.844,11.932-59.985,20.712l7.551-31.344c-6.9-10.944-44.547-6.302-56.121,1.309L2432.538,1406
					c-11.609,7.634-15.404,22.717-8.471,33.674l14.859,23.489c-16.368,14.392-31.336,30.324-44.638,47.533l0.273-15.53
					c-11.852-5.656-51.889,3.296-58.513,15.442l-22.601,41.435c-6.636,12.168-2.377,26.603,9.508,32.24l23.683,11.226
					c-7.676,20.201-13.333,41.227-16.729,62.814l-26.218,2.382C2290.065,1661.944,2279.171,1673.787,2279.369,1687.16z
					 M2448.744,1698.955c-1.486-100.28,79.621-188.728,180.597-197.505c100.364-8.724,182.47,64.644,183.938,163.827
					c1.469,99.182-78.243,187.498-178.59,197.317C2533.731,1872.473,2450.229,1799.235,2448.744,1698.955z"/>
				
					<linearGradient id="SVGID_00000006690577065086978060000003910604837196042632_" gradientUnits="userSpaceOnUse" x1="82.7023" y1="1205.5332" x2="905.0499" y2="2600.3997" gradientTransform="matrix(-0.9999 0.0148 0.0148 0.9999 3079.3472 -154.8092)">
					<stop  offset="0" style="stop-color:#FF9085"/>
					<stop  offset="1" style="stop-color:#FB6FBB"/>
				</linearGradient>
				<path style="fill:url(#SVGID_00000006690577065086978060000003910604837196042632_);" d="M2309.914,1685.279l0.675,45.58
					c0.198,13.373,11.412,23.176,25.037,21.901l24.763-2.319c3.427,21.513,9.195,42.055,17.057,61.387l-20.347,13.599
					c-11.687,7.809-15.507,22.99-8.529,33.902l23.765,37.158c6.966,10.893,22.061,13.37,33.714,5.546l19.249-12.928
					c14.082,15.934,30.007,30.145,47.457,42.376l-10.543,19.53c-6.59,12.208-2.359,26.547,9.445,32.025l40.174,18.634
					c11.767,5.458,26.617-0.002,33.174-12.187l10.096-18.763c20.677,5.946,42.391,9.619,64.848,10.796l0.299,20.195
					c0.196,13.251,11.207,22.876,24.583,21.503l45.518-4.674c13.329-1.368,23.968-13.187,23.772-26.4l-0.298-20.135
					c22.198-5.689,43.531-13.691,63.722-23.714l10.474,16.559c6.796,10.744,21.52,13.16,32.883,5.409l38.677-26.384
					c11.328-7.731,15.026-22.682,8.262-33.411l-10.831-17.18c16.627-15.443,31.682-32.508,44.873-50.882l19.001,9.009
					c11.48,5.442,25.967,0.118,32.361-11.889l21.778-40.884c6.383-11.984,2.281-26.121-9.168-31.585l-19.973-9.534
					c7.015-20.402,11.973-41.588,14.651-63.285l23.846-2.233c13.092-1.226,23.54-12.832,23.346-25.927l-0.661-44.631
					c-0.194-13.094-10.957-22.744-24.049-21.555l-25.25,2.294c-3.888-20.55-9.94-40.165-17.918-58.634l22.476-15.091
					c11.255-7.56,14.928-22.415,8.208-33.19l-22.928-36.76c-6.732-10.795-21.336-13.437-32.624-5.894l-23.656,15.808
					c-13.409-14.685-28.421-27.855-44.783-39.296l13.792-25.631c6.427-11.943,2.298-26.176-9.229-31.795l-39.351-19.188
					c-11.562-5.636-26.175-0.513-32.634,11.454l-14.18,26.266c-19.127-5.531-39.162-9.147-59.891-10.611l-0.433-29.256
					c-0.196-13.214-11.155-23.039-24.489-21.949l-45.532,3.725c-13.38,1.095-24.076,12.722-23.879,25.973l0.434,29.339
					c-20.778,4.94-40.844,11.932-59.985,20.712l-15.126-23.993c-6.899-10.945-21.87-13.653-33.444-6.042l-39.513,25.988
					c-11.609,7.634-15.404,22.716-8.472,33.674l14.86,23.489c-16.368,14.392-31.336,30.324-44.637,47.533l-24.783-11.829
					c-11.852-5.656-26.834-0.404-33.458,11.742l-22.601,41.436c-6.636,12.168-2.377,26.604,9.508,32.24l23.683,11.226
					c-7.676,20.201-13.333,41.227-16.729,62.814l-26.219,2.382C2320.609,1660.063,2309.715,1671.906,2309.914,1685.279z
					 M2479.288,1697.074c-1.485-100.28,79.621-188.727,180.597-197.505c100.363-8.724,182.47,64.644,183.939,163.826
					c1.469,99.183-78.243,187.498-178.59,197.317C2564.274,1870.591,2480.774,1797.354,2479.288,1697.074z"/>
			</g>
			
				<linearGradient id="SVGID_00000011715869566042867270000013602971453801293968_" gradientUnits="userSpaceOnUse" x1="3834.3633" y1="2720.2095" x2="3570.6501" y2="3177.8291" gradientTransform="matrix(1 0 0 1 -1183.764 0)">
				<stop  offset="0" style="stop-color:#311944"/>
				<stop  offset="1" style="stop-color:#893976"/>
			</linearGradient>
			<path style="fill:url(#SVGID_00000011715869566042867270000013602971453801293968_);" d="M2606.112,2550.564
				c-35.234,70.894-71.147,156.113-100.831,254.85c-44.221,147.086-61.16,279.398-66.575,384.406
				c12.589,5.197,25.177,10.397,37.766,15.594c24.735-15.763,61.024-43.522,87.783-88.569c43.861-73.838,12.9-111.28,48.55-200.089
				c34.56-86.096,78.357-87.534,116.299-181.148c22.633-55.845,27.809-106.557,28.809-139.613
				C2707.313,2580.852,2656.712,2565.708,2606.112,2550.564z"/>
			
				<linearGradient id="SVGID_00000007399458102445413410000018309140077620398998_" gradientUnits="userSpaceOnUse" x1="3864.8" y1="2737.7498" x2="3601.0872" y2="3195.3694" gradientTransform="matrix(1 0 0 1 -1183.764 0)">
				<stop  offset="0" style="stop-color:#311944"/>
				<stop  offset="1" style="stop-color:#893976"/>
			</linearGradient>
			<path style="opacity:0.3;fill:url(#SVGID_00000007399458102445413410000018309140077620398998_);" d="M2675.274,2571.262
				c13.643,35.287,12.553,61.811,7.292,81.243c-17.511,64.687-86.599,71.703-103.048,144.044
				c-11.038,48.546,16.917,59.282,2.216,109.696c-15.6,53.497-49.921,51.15-68.698,106.372
				c-14.761,43.408,0.969,60.973-5.54,121.885c-2.253,21.081-6.43,40.263-11.459,57.367c22.082-16.588,47.893-40.808,68.217-75.023
				c43.861-73.838,12.9-111.28,48.55-200.089c34.56-86.096,78.357-87.534,116.299-181.148
				c22.633-55.845,27.809-106.557,28.809-139.613C2730.367,2587.75,2702.821,2579.507,2675.274,2571.262z"/>
			
				<linearGradient id="SVGID_00000089539242945186710710000005714528492148941967_" gradientUnits="userSpaceOnUse" x1="4318.5806" y1="3123.123" x2="4358.4639" y2="3123.123" gradientTransform="matrix(1 0 0 1 -1183.764 0)">
				<stop  offset="0" style="stop-color:#444B8C"/>
				<stop  offset="0.9964" style="stop-color:#26264F"/>
			</linearGradient>
			<path style="fill:url(#SVGID_00000089539242945186710710000005714528492148941967_);" d="M3159.973,3070.236
				c0,0,9.319,3.502,13.454,16.523c4.135,13.018-2.631,67.132-8.518,80.428c-5.886,13.296-23.231,10.125-28.29,0
				c-5.058-10.122,2.136-81.746,2.136-81.746L3159.973,3070.236z"/>
			
				<linearGradient id="SVGID_00000157297258394038891900000004084035689982070444_" gradientUnits="userSpaceOnUse" x1="4163.4341" y1="2621.1555" x2="3987.2568" y2="3016.7246" gradientTransform="matrix(1 0 0 1 -1183.764 0)">
				<stop  offset="0" style="stop-color:#311944"/>
				<stop  offset="1" style="stop-color:#893976"/>
			</linearGradient>
			<path style="fill:url(#SVGID_00000157297258394038891900000004084035689982070444_);" d="M2611.652,2582.698
				c40.985,55.579,69.289,103.746,87.535,137.396c38.552,71.098,47.373,105.362,92.816,171.438
				c42.081,61.188,69.854,83.187,81.193,91.631c27.351,20.363,49.924,29.492,108.02,51.465
				c50.766,19.199,104.532,39.083,161.152,59.443c10.006,1.125,14.21-3.195,16.96-12.268c-0.93-43.247-13.946-69.65-24.74-85.276
				c-23.038-33.351-46.95-33.52-118.254-84.041c-38.021-26.937-57.358-40.856-73.383-62.889
				c-7.709-10.598-20.335-30.29-40.335-104.622c-8.196-30.459-18.049-71.654-26.356-121.454
				C2788.058,2609.914,2699.855,2596.306,2611.652,2582.698z"/>
			
				<linearGradient id="SVGID_00000118378138477634037600000014310874537831564931_" gradientUnits="userSpaceOnUse" x1="3536.7046" y1="1911.2081" x2="3530.0564" y2="2048.3281" gradientTransform="matrix(1 0 0 1 -1183.764 0)">
				<stop  offset="0" style="stop-color:#FFC444"/>
				<stop  offset="0.9964" style="stop-color:#F36F56"/>
			</linearGradient>
			<path style="fill:url(#SVGID_00000118378138477634037600000014310874537831564931_);" d="M2372.976,1936.246
				c0,0,7.02-14.446-9.465-27.429c-16.485-12.983-47.982-30.83-45.489-55.761c0,0,17.02,28.629,28.015,26.046
				c10.995-2.583,18.401,3.735,18.401,3.735s25.719,14.641,24.97,42.707c-0.749,28.066-0.749,28.066-0.749,28.066L2372.976,1936.246
				z"/>
			
				<linearGradient id="SVGID_00000168837136297392367840000013764647318125620882_" gradientUnits="userSpaceOnUse" x1="3610.4678" y1="2142.853" x2="3798.8337" y2="2670.2781" gradientTransform="matrix(1 0 0 1 -1183.764 0)">
				<stop  offset="0" style="stop-color:#AA80F9"/>
				<stop  offset="0.9964" style="stop-color:#6165D7"/>
			</linearGradient>
			<path style="fill:url(#SVGID_00000168837136297392367840000013764647318125620882_);" d="M2365.113,1929.757
				c9.648-1.552,19.295-3.1,28.943-4.652c8.273,12.342,19.828,31.917,28.413,57.727c19.391,58.292,4.52,90.936,16.052,126.18
				c9.446,28.869,38.362,64.853,127.147,91.413c-0.644,56.384-1.288,112.767-1.931,169.15
				c-36.396-5.405-94.992-19.841-150.978-62.778c-32.432-24.872-67.576-51.826-80.61-98.062
				c-16.448-58.344,7.917-127.507,17.451-154.571c5.457-15.491,16.047-41.752,17.825-79.279
				C2368.322,1955.977,2366.692,1940.287,2365.113,1929.757z"/>
			
				<linearGradient id="SVGID_00000090277662548719629210000004097799538290547111_" gradientUnits="userSpaceOnUse" x1="3795.2031" y1="2076.8765" x2="3983.5693" y2="2604.3022" gradientTransform="matrix(1 0 0 1 -1183.764 0)">
				<stop  offset="0" style="stop-color:#AA80F9"/>
				<stop  offset="0.9964" style="stop-color:#6165D7"/>
			</linearGradient>
			<path style="fill:url(#SVGID_00000090277662548719629210000004097799538290547111_);" d="M2558.929,2198.351
				c30.546,6.002,72.785,10.628,122.233,4.801c86.04-10.141,148.404-46.57,180.685-68.901
				c35.256,76.929,35.993,133.955,29.784,172.273c-4.575,28.239-11.528,37.708-12.153,69.306
				c-1.052,53.205,17.97,61.269,26.912,130.413c7.362,56.922-3.219,69.326,13.396,93.023c11.922,17.004,27.751,25.425,37.164,52.004
				c3.117,8.801,10.871,30.702,2.627,37.799c-13.209,11.372-46.004-33.738-107.203-39.889c-32.639-3.279-37.633,8.113-71.468,1.662
				c-36.93-7.041-34.369-21.256-68.975-28.255c-34.304-6.937-44.715,5.434-97.23-0.831c-22.094-2.636-33.14-3.954-40.029-10.079
				c-22.283-19.815-3.867-59.24,0.14-121.223c3.952-61.136-11.219-65.209-17.452-156.233
				C2555.157,2302.067,2553.83,2255.549,2558.929,2198.351z"/>
			
				<linearGradient id="SVGID_00000072240052189820291780000000844697437691114395_" gradientUnits="userSpaceOnUse" x1="4049.7195" y1="1985.9775" x2="4238.0859" y2="2513.4038" gradientTransform="matrix(1 0 0 1 -1183.764 0)">
				<stop  offset="0" style="stop-color:#AA80F9"/>
				<stop  offset="0.9964" style="stop-color:#6165D7"/>
			</linearGradient>
			<path style="fill:url(#SVGID_00000072240052189820291780000000844697437691114395_);" d="M2855.698,1947.793
				c6.925-7.755,13.85-15.513,20.776-23.269c29.154,15.715,73.707,44.379,114.113,93.406c30.233,36.686,56.924,69.07,59.798,116.062
				c4.118,67.359-43.573,117.776-65.777,141.249c-43.758,46.258-94.226,65.599-123.093,73.938
				c-55.904-124.079-47.598-172.539-27.809-193.23c11.015-11.517,25.873-14.731,39.494-36.101
				c18.951-29.732,15.592-63.366,13.462-84.684C2882.744,1995.947,2867.401,1965.998,2855.698,1947.793z"/>
			<g>
				
					<linearGradient id="SVGID_00000070086720239689856970000015031647617175335552_" gradientUnits="userSpaceOnUse" x1="2718.896" y1="-549.1619" x2="2724.9797" y2="-711.2098" gradientTransform="matrix(-0.9729 0.2312 0.2312 0.9729 5476.6802 2168.9084)">
					<stop  offset="0" style="stop-color:#FFC444"/>
					<stop  offset="0.9964" style="stop-color:#F36F56"/>
				</linearGradient>
				<path style="fill:url(#SVGID_00000070086720239689856970000015031647617175335552_);" d="M2687.847,2138.481
					c-1.591,8.447-2.568,26.674,8.599,41.155c9.778,12.68,24.732,16.517,30.723,18.114c14.48,3.86,22.303,0.73,23.082,3.22
					c1.724,5.512-33.792,29.982-74.891,28.449c-24.155-0.899-48.487-10.715-48.238-18.477c0.28-8.709,31.285-7.726,38.978-25.759
					c4.916-11.524-1.86-25.723-9.217-36.78C2663.549,2140.647,2681.164,2146.256,2687.847,2138.481z"/>
				<g>
					
						<linearGradient id="SVGID_00000078014654109921799650000000481566981487558320_" gradientUnits="userSpaceOnUse" x1="1180.1102" y1="-982.7784" x2="1145.2715" y2="-1071.2625" gradientTransform="matrix(0.9419 0.3361 -0.3361 0.9419 1243.7867 2738.3169)">
						<stop  offset="0" style="stop-color:#311944"/>
						<stop  offset="1" style="stop-color:#6B3976"/>
					</linearGradient>
					<path style="fill:url(#SVGID_00000078014654109921799650000000481566981487558320_);" d="M2658.058,2130.929
						c-2.511-6.996,0.28-16.425,7.117-20.422c5.886-3.44,12.778-1.594,16.907-0.49c11.978,3.207,25.111,13.407,26.922,25.429
						c1.074,7.131-9.495,16.986-11.244,18.816c-1.979,2.069-4.358,2.118-6.918,3.267c-3.549,1.595-9.124,4.155-18.274,8.5
						c0.145-2.278,0.172-5.156-0.207-8.436c-0.146-1.261-0.77-6.209-2.645-10.839
						C2665.963,2137.483,2660.439,2137.566,2658.058,2130.929z"/>
					
						<linearGradient id="SVGID_00000111184566373655753370000014301932001046801846_" gradientUnits="userSpaceOnUse" x1="423.6843" y1="-1073.1696" x2="422.1256" y2="-947.5837" gradientTransform="matrix(-0.9194 -0.3931 -0.3931 0.9194 2646.4829 3292.2305)">
						<stop  offset="0" style="stop-color:#FFC444"/>
						<stop  offset="0.9964" style="stop-color:#F36F56"/>
					</linearGradient>
					<path style="fill:url(#SVGID_00000111184566373655753370000014301932001046801846_);" d="M2684.28,2163.94
						c0,0-11.46,8.818-26.286,1.98c-13.248-6.111-5.852-35.52,4.767-38.246c3.545-0.909,9.596,0.487,13.888,3.551
						c2.537,1.811,3.122,3.264,7.322,6.15c3.876,2.666,5.21,2.687,6.153,4.189c1.179,1.881,1.334,5.431-4.064,12.79
						c3.398-1.466,6.818-1.206,8.702,0.632c0.301,0.294,1.038,1.254,1.268,2.365
						C2696.858,2161.373,2692.31,2164.328,2684.28,2163.94z"/>
				</g>
			</g>
			
				<linearGradient id="SVGID_00000102514373964749449940000001070452541040465313_" gradientUnits="userSpaceOnUse" x1="3587.8513" y1="1758.4132" x2="3876.5303" y2="2566.7151" gradientTransform="matrix(1 0 0 1 -1183.764 0)">
				<stop  offset="0" style="stop-color:#AA80F9"/>
				<stop  offset="0.9964" style="stop-color:#6165D7"/>
			</linearGradient>
			<path style="opacity:0.3;fill:url(#SVGID_00000102514373964749449940000001070452541040465313_);" d="M2863.177,2581.591
				c-25.97-5.018-35.737,19.821-60.942,15.511c-35.041-5.993-31.382-56.604-72.022-80.886
				c-46.562-27.816-93.134,13.66-124.101-9.972c-17.723-13.524-29.588-47.807-6.648-137.396c0.384-6.989,1.459-40.142-23.269-68.699
				c-28.094-32.446-67.208-33.225-73.13-33.241c-62.94,3.866-122.433-25.904-154.017-77.562
				c-11.184-18.292-17.329-36.838-20.374-54.192c-3.144,23.915-3.268,49.657,3.477,73.582c13.034,46.236,48.178,73.189,80.61,98.062
				c54.431,41.746,111.267,56.523,147.833,62.278c7.041,58.552,17.59,69.209,14.218,121.379
				c-4.008,61.983-22.424,101.408-0.14,121.223c6.889,6.126,17.936,7.444,40.029,10.079c52.515,6.265,62.927-6.106,97.23,0.831
				c34.606,6.999,32.045,21.214,68.975,28.255c33.836,6.45,38.829-4.941,71.468-1.662c61.199,6.151,93.993,51.261,107.203,39.889
				c4.719-4.061,4.19-12.972,2.295-21.503c-16.376-5.505-28.108-13.101-36.645-20.603
				C2896.055,2621.325,2892.199,2587.201,2863.177,2581.591z"/>
		</g>
		<g>
			
				<linearGradient id="SVGID_00000131360279462218789470000013285128898635929771_" gradientUnits="userSpaceOnUse" x1="610.3129" y1="772.7575" x2="1240.2297" y2="1841.2229" gradientTransform="matrix(-0.9999 0.0148 0.0148 0.9999 3079.3472 -154.8092)">
				<stop  offset="0" style="stop-color:#311944"/>
				<stop  offset="1" style="stop-color:#893976"/>
			</linearGradient>
			<path style="fill:url(#SVGID_00000131360279462218789470000013285128898635929771_);" d="M1936.417,1112.071l0.509,34.37
				c0.149,10.084,8.605,17.477,18.88,16.514l18.672-1.749c2.585,16.223,6.934,31.713,12.862,46.29l-15.343,10.254
				c-8.812,5.888-11.693,17.336-6.431,25.564l17.92,28.02c5.252,8.214,28.865,12.094,37.652,6.194l2.286-11.76
				c10.618,12.015,22.627,22.731,35.785,31.954l-7.95,14.726c-4.969,9.206-1.779,20.018,7.122,24.149l30.294,14.051
				c8.873,4.115,36.994,3.448,41.938-5.741l-9.31-17.597c15.592,4.483,31.966,7.253,48.899,8.141l0.226,15.228
				c0.148,9.993,8.45,17.25,18.537,16.215l34.323-3.525c10.051-1.032,18.073-9.944,17.926-19.908l-0.225-15.183
				c16.739-4.29,32.825-10.324,48.051-17.882l7.898,12.486c5.124,8.101,34.296,10.972,42.865,5.127l11.095-20.943
				c8.542-5.829,11.331-17.104,6.231-25.194l-8.167-12.954c12.538-11.645,23.891-24.513,33.837-38.368l14.328,6.793
				c8.656,4.104,33.756,5.192,38.578-3.861l2.246-35.933c4.813-9.037,1.719-19.697-6.913-23.817l-15.061-7.189
				c5.29-15.384,9.029-31.359,11.048-47.72l17.981-1.684c9.872-0.924,17.75-9.676,17.604-19.55l-0.499-33.654
				c-0.146-9.874-8.262-17.151-18.135-16.254l-19.04,1.729c-2.933-15.496-7.496-30.287-13.512-44.213l16.948-11.38
				c8.487-5.702,11.257-16.902,6.19-25.028l1.69-33.549c-5.076-8.14-35.068-4.302-43.58,1.386l-17.838,11.92
				c-10.111-11.073-21.431-21.004-33.769-29.631l10.4-19.327c4.846-9.005,1.732-19.738-6.959-23.975l-13.479-17.6
				c-8.718-4.25-35.931,2.744-40.802,11.767l-10.692,19.807c-14.423-4.171-29.531-6.897-45.162-8.001l-0.327-22.061
				c-0.148-9.964-8.412-17.373-18.466-16.55l-34.333,2.809c-10.09,0.825-18.155,9.593-18.007,19.586l0.328,22.123
				c-15.668,3.725-30.799,8.998-45.233,15.618l5.694-23.635c-5.203-8.253-33.591-4.752-42.319,0.987l-29.795,19.596
				c-8.754,5.757-11.616,17.13-6.388,25.393l11.205,17.712c-12.343,10.852-23.629,22.867-33.66,35.843l0.206-11.71
				c-8.937-4.265-39.128,2.486-44.123,11.645l-17.042,31.245c-5.004,9.175-1.793,20.061,7.17,24.311l17.858,8.465
				c-5.788,15.233-10.054,31.088-12.615,47.366l-19.77,1.796C1944.482,1093.057,1936.268,1101.987,1936.417,1112.071z
				 M2064.137,1120.966c-1.12-75.617,60.039-142.312,136.181-148.931c75.68-6.578,137.593,48.746,138.701,123.536
				c1.108,74.79-59,141.385-134.668,148.789C2128.221,1251.808,2065.257,1196.583,2064.137,1120.966z"/>
			
				<linearGradient id="SVGID_00000049181486098080996440000009265474717093882271_" gradientUnits="userSpaceOnUse" x1="600.1889" y1="778.9955" x2="1220.2897" y2="1830.8108" gradientTransform="matrix(-0.9999 0.0148 0.0148 0.9999 3079.3472 -154.8092)">
				<stop  offset="0" style="stop-color:#FF9085"/>
				<stop  offset="1" style="stop-color:#FB6FBB"/>
			</linearGradient>
			<path style="fill:url(#SVGID_00000049181486098080996440000009265474717093882271_);" d="M1959.45,1110.653l0.509,34.37
				c0.149,10.084,8.605,17.476,18.88,16.514l18.673-1.749c2.585,16.223,6.934,31.712,12.862,46.289l-15.343,10.254
				c-8.813,5.888-11.693,17.336-6.431,25.564l17.92,28.02c5.252,8.214,16.636,10.082,25.422,4.182l14.515-9.748
				c10.618,12.015,22.627,22.731,35.785,31.954l-7.95,14.726c-4.969,9.206-1.779,20.018,7.122,24.149l30.294,14.051
				c8.873,4.115,20.071-0.001,25.015-9.19l7.613-14.148c15.592,4.483,31.966,7.253,48.9,8.141l0.226,15.228
				c0.148,9.992,8.451,17.25,18.537,16.214l34.323-3.525c10.051-1.032,18.073-9.944,17.926-19.907l-0.225-15.183
				c16.739-4.289,32.825-10.324,48.05-17.881l7.898,12.486c5.124,8.101,16.228,9.924,24.796,4.079l29.164-19.895
				c8.542-5.829,11.33-17.104,6.23-25.194l-8.167-12.955c12.538-11.645,23.89-24.513,33.837-38.368l14.328,6.793
				c8.657,4.104,19.581,0.089,24.402-8.965l16.422-30.829c4.813-9.037,1.72-19.697-6.913-23.817l-15.061-7.189
				c5.29-15.385,9.029-31.36,11.048-47.721l17.981-1.684c9.872-0.925,17.751-9.676,17.605-19.55l-0.499-33.655
				c-0.146-9.874-8.262-17.15-18.135-16.253l-19.04,1.73c-2.932-15.496-7.495-30.287-13.512-44.214l16.948-11.38
				c8.487-5.701,11.257-16.902,6.189-25.027l-17.289-27.719c-5.076-8.14-16.089-10.132-24.6-4.444l-17.837,11.92
				c-10.111-11.073-21.432-21.004-33.77-29.632l10.4-19.327c4.847-9.005,1.733-19.738-6.959-23.975l-29.673-14.469
				c-8.718-4.25-19.737-0.387-24.608,8.637l-10.692,19.806c-14.423-4.171-29.53-6.897-45.161-8.002l-0.327-22.061
				c-0.147-9.964-8.412-17.373-18.466-16.551l-34.334,2.809c-10.09,0.826-18.155,9.593-18.007,19.585l0.328,22.123
				c-15.668,3.725-30.799,8.998-45.232,15.618l-11.406-18.092c-5.203-8.253-16.491-10.295-25.219-4.556l-29.795,19.597
				c-8.754,5.756-11.616,17.129-6.388,25.392l11.205,17.712c-12.343,10.852-23.629,22.867-33.66,35.843l-18.688-8.92
				c-8.937-4.265-20.234-0.305-25.229,8.854l-17.042,31.245c-5.004,9.175-1.793,20.061,7.17,24.311l17.858,8.465
				c-5.788,15.233-10.054,31.088-12.615,47.366l-19.77,1.796C1967.514,1091.638,1959.3,1100.569,1959.45,1110.653z
				 M2087.169,1119.547c-1.12-75.618,60.039-142.312,136.181-148.931c75.68-6.579,137.594,48.746,138.701,123.535
				c1.108,74.79-59,141.385-134.668,148.789C2151.253,1250.39,2088.289,1195.165,2087.169,1119.547z"/>
		</g>
	</g>
</g>
</svg>
