<?xml version="1.0" encoding="UTF-8"?>
<!DOCTYPE svg PUBLIC "-//W3C//DTD SVG 1.1//EN" "http://www.w3.org/Graphics/SVG/1.1/DTD/svg11.dtd">
<!-- Creator: CorelDRAW X7 -->
<svg xmlns="http://www.w3.org/2000/svg" xml:space="preserve" width="164.706mm" height="192.475mm" version="1.1" style="shape-rendering:geometricPrecision; text-rendering:geometricPrecision; image-rendering:optimizeQuality; fill-rule:evenodd; clip-rule:evenodd"
viewBox="0 0 16471 19248"
 xmlns:xlink="http://www.w3.org/1999/xlink">
 <defs>
  <style type="text/css">
   <![CDATA[
    .fil4 {fill:#1F1F1D}
    .fil8 {fill:#2D1D11}
    .fil7 {fill:#34243D}
    .fil11 {fill:#383446}
    .fil6 {fill:#3F2616}
    .fil12 {fill:#422D4B}
    .fil1 {fill:#57546B}
    .fil10 {fill:#67627E}
    .fil0 {fill:#9975AE}
    .fil3 {fill:#D67E54}
    .fil5 {fill:#DA9077}
    .fil2 {fill:#E4AE7C}
    .fil9 {fill:white}
   ]]>
  </style>
 </defs>
 <g id="OBJECTS">
  <metadata id="CorelCorpID_0Corel-Layer"/>
  <g id="_1717625315680">
   <path class="fil0" d="M2802 2017l10866 0c1542,0 2803,1261 2803,2802l0 10866c0,1541 -1261,2802 -2803,2802l-10866 0c-1541,0 -2802,-1261 -2802,-2802l0 -10866c0,-1541 1261,-2802 2802,-2802z"/>
   <g>
    <path class="fil1" d="M8235 19177l-6779 0c-79,-3467 2589,-5480 4879,-6231 186,-967 138,-2222 138,-2222l1762 0 1762 0c0,0 -47,1255 139,2222 2290,751 4957,2764 4879,6231l-6780 0z"/>
    <path class="fil2" d="M4503 7944c-16,-181 -758,-395 -1005,198 -247,593 198,1433 1038,1499 840,66 593,-82 593,-82l-626 -1615z"/>
    <path class="fil2" d="M11985 7944c17,-181 758,-395 1005,198 247,593 -197,1433 -1038,1499 -840,66 -593,-82 -593,-82l626 -1615z"/>
    <path class="fil3" d="M10019 11968c-763,1460 -2728,1612 -3571,57 22,-318 29,-618 30,-849l3514 0c1,217 8,495 27,792z"/>
    <path class="fil2" d="M8235 11939c-4372,105 -6579,-10676 0,-10400 6579,-276 4372,10505 0,10400z"/>
    <path class="fil4" d="M6767 6935c175,127 214,371 88,546 -127,175 -373,215 -548,88 -176,-126 -215,-371 -88,-546 127,-175 372,-215 548,-88z"/>
    <path class="fil4" d="M9729 6935c-176,127 -215,371 -89,546 127,175 372,215 548,88 176,-126 215,-371 88,-546 -127,-175 -372,-215 -547,-88z"/>
    <path class="fil5" d="M6284 8356c223,172 232,423 21,561 -211,138 -563,111 -786,-60 -223,-172 -233,-423 -22,-561 211,-138 563,-111 787,60z"/>
    <path class="fil5" d="M10211 8356c-223,172 -232,423 -21,561 211,138 563,111 786,-60 223,-172 233,-423 22,-561 -211,-138 -563,-111 -787,60z"/>
    <path class="fil6" d="M6938 5872c-15,-7 -29,-13 -44,-18 -171,-62 -316,-79 -501,-65 -180,19 -315,60 -467,146 -71,46 -347,269 -268,352 32,8 307,-132 387,-158 126,-37 228,-52 361,-49 124,6 217,24 331,67 3,1 23,10 27,12 231,112 210,184 367,76 243,-128 -7,-266 -193,-363z"/>
    <path class="fil6" d="M9533 5872c15,-7 29,-13 44,-18 171,-62 316,-79 500,-65 181,19 316,60 467,146 71,46 347,269 269,352 -32,8 -307,-132 -388,-158 -125,-37 -227,-52 -360,-49 -124,6 -218,24 -331,67 -3,1 -23,10 -28,12 -230,112 -209,184 -367,76 -242,-128 7,-266 194,-363z"/>
    <path class="fil3" d="M8030 10506c-23,-14 -30,-42 -17,-65 13,-22 42,-30 65,-17 65,38 148,58 231,58 83,0 164,-20 227,-57 22,-14 51,-7 65,16 13,22 6,51 -16,64 -78,48 -177,71 -276,71 -99,0 -199,-23 -279,-70z"/>
    <path class="fil3" d="M8200 8790c-27,0 -48,-21 -48,-47 0,-26 21,-47 48,-47 113,0 249,-1 354,-19 87,-15 150,-38 150,-78 0,-136 -138,-984 -139,-986 -4,-26 14,-50 40,-54 26,-4 50,13 54,39 0,3 140,859 140,1001 0,100 -97,149 -229,171 -113,19 -253,20 -370,20z"/>
    <path class="fil3" d="M12721 8610c0,26 -21,47 -47,47 -26,0 -47,-21 -47,-47 0,-144 -25,-235 -65,-284 -24,-29 -55,-43 -88,-44 -39,-1 -84,14 -130,40 -124,70 -253,220 -324,383 -34,78 -64,159 -81,219 73,-50 153,-70 221,-64 39,4 74,17 102,37 30,22 53,52 64,90 19,65 4,152 -65,256 -15,22 -44,28 -66,13 -22,-14 -27,-44 -13,-65 52,-78 65,-137 53,-177 -5,-17 -15,-31 -28,-40 -15,-11 -34,-17 -56,-20 -61,-6 -138,21 -202,86 -17,17 -34,27 -48,30 -38,8 -61,-9 -69,-46l0 -3c-3,-14 -3,-33 1,-55 11,-67 51,-187 100,-299 79,-181 224,-348 365,-427 60,-34 121,-54 177,-52 62,1 117,25 160,79 53,65 86,175 86,343z"/>
    <path class="fil3" d="M3844 8610c0,26 -21,47 -47,47 -27,0 -48,-21 -48,-47 0,-168 33,-278 87,-343 43,-54 98,-78 159,-79 57,-2 117,18 178,52 141,79 285,246 364,427 49,112 90,232 101,299 3,22 4,41 1,55l-1 3c-8,37 -30,54 -68,46 -15,-3 -31,-13 -48,-30 -64,-65 -141,-92 -202,-86 -22,3 -42,9 -56,20 -14,9 -24,23 -29,40 -11,40 1,99 54,177 14,21 8,51 -13,65 -22,15 -51,9 -66,-13 -70,-104 -85,-191 -65,-256 11,-38 33,-68 63,-90 29,-20 64,-33 102,-37 68,-6 149,14 221,64 -17,-60 -46,-141 -81,-219 -71,-163 -199,-313 -324,-383 -46,-26 -90,-41 -129,-40 -34,1 -64,15 -88,44 -40,49 -65,140 -65,284z"/>
    <path class="fil7" d="M13073 2436c182,35 158,185 -373,560 491,619 567,1602 399,2524 -36,197 -590,1593 -1112,2507 -49,85 -16,-1813 -565,-2571 -278,-384 -507,-840 -1074,-1220 -6,108 331,402 205,461 -480,227 -1833,-7 -2458,-166 180,186 363,320 294,388 -215,211 -1575,-119 -2416,-683 -203,672 -491,1385 -814,1576 -864,508 -487,2657 -714,2341 -1041,-1448 -779,-3323 -779,-3323 -101,160 -215,298 -295,463 -143,299 -242,-2449 1065,-2805 0,0 -206,-71 -736,28 -195,37 382,-500 1004,-569 18,-271 139,-1357 933,-1707 368,-163 972,-273 895,-227 -378,230 -487,548 -487,548 2906,-1370 4228,87 5367,1000 344,277 1073,829 1661,875z"/>
    <path class="fil8" d="M6438 6029c387,0 738,157 991,410 254,254 411,604 411,991 0,387 -157,737 -411,990 -253,254 -604,411 -991,411 -386,0 -737,-157 -990,-411 -254,-253 -411,-603 -411,-990 0,-387 157,-737 411,-991 253,-253 604,-410 990,-410zm824 578l0 0c-211,-211 -502,-341 -824,-341 -321,0 -612,130 -823,341 -210,210 -341,501 -341,823 0,321 131,612 341,823 211,211 502,341 823,341 322,0 613,-130 824,-341 210,-211 341,-502 341,-823 0,-322 -131,-613 -341,-823z"/>
    <path class="fil8" d="M10032 6029c387,0 737,157 991,410 253,254 410,604 410,991 0,387 -157,737 -410,990 -254,254 -604,411 -991,411 -387,0 -737,-157 -990,-411 -254,-253 -411,-603 -411,-990 0,-387 157,-737 411,-991 253,-253 603,-410 990,-410zm823 578l0 0c-210,-211 -501,-341 -823,-341 -321,0 -612,130 -823,341 -211,210 -341,501 -341,823 0,321 130,612 341,823 211,211 502,341 823,341 322,0 613,-130 823,-341 211,-211 341,-502 341,-823 0,-322 -130,-613 -341,-823z"/>
    <path class="fil8" d="M5114 7315c49,-17 103,8 121,57 17,49 -8,103 -57,121l-835 301c-49,17 -103,-8 -121,-58 -17,-49 8,-103 57,-120l835 -301z"/>
    <path class="fil8" d="M11297 7493c-49,-18 -75,-72 -57,-121 17,-49 71,-74 120,-57l835 301c49,17 74,71 57,120 -18,50 -72,75 -121,58l-834 -301z"/>
    <path class="fil8" d="M7742 7321c-28,44 -86,58 -130,31 -45,-27 -59,-85 -32,-130 1,0 161,-272 655,-272 495,0 655,272 656,272 27,45 13,103 -32,130 -45,27 -103,13 -130,-31 0,-1 -106,-182 -494,-182 -387,0 -493,181 -493,182z"/>
    <path class="fil9" d="M9718 9239c-595,221 -2404,217 -2966,27 311,1131 2664,1113 2966,-27z"/>
    <path class="fil10" d="M6410 11770c-48,-21 -173,-19 -173,68 1,95 89,421 26,662 -67,254 -180,463 -50,514 597,232 1248,355 1901,368 733,15 1470,-108 2140,-368 130,-51 17,-260 -50,-514 -63,-241 25,-567 25,-662 1,-87 -124,-89 -172,-68 -1166,499 -2482,499 -3647,0z"/>
    <path class="fil11" d="M3291 17214c1,-39 33,-70 72,-70 39,0 70,32 70,72l-17 1961c-1,39 -33,71 -72,70 -39,0 -70,-32 -70,-71l17 -1962z"/>
    <path class="fil11" d="M13055 17214c0,-39 32,-70 71,-70 40,0 71,32 71,72l-18 1961c0,39 -32,71 -71,70 -39,0 -71,-32 -70,-71l17 -1962z"/>
    <path class="fil1" d="M6559 11991c1,-26 23,-46 49,-45 26,1 47,22 46,48 -2,65 -3,126 -4,187 -1,125 -2,252 -15,402 -20,237 -147,435 -148,435 -13,22 -43,29 -65,15 -22,-14 -28,-43 -14,-65 0,-1 115,-178 133,-393 12,-151 14,-274 15,-395 1,-63 1,-125 3,-189z"/>
    <path class="fil1" d="M6948 12129c1,-26 23,-46 49,-45 26,1 46,22 46,48 -3,65 -3,126 -4,187 -1,125 -3,252 -15,402 -20,237 -147,435 -148,435 -14,22 -43,29 -65,15 -22,-14 -28,-43 -14,-65 0,-1 115,-179 132,-393 13,-151 14,-274 16,-395 0,-63 1,-125 3,-189z"/>
    <path class="fil1" d="M7356 12205c1,-26 22,-47 48,-46 27,1 47,23 46,49 -2,64 -3,125 -3,186 -2,125 -3,253 -16,402 -19,237 -147,435 -147,436 -14,21 -43,28 -65,14 -22,-14 -29,-43 -15,-65 1,-1 115,-178 133,-393 12,-150 14,-274 15,-395 1,-63 2,-125 4,-188z"/>
    <path class="fil1" d="M7776 12280c1,-26 22,-47 48,-46 27,1 47,23 46,49 -2,64 -3,125 -3,186 -2,125 -3,253 -16,402 -19,238 -147,435 -147,436 -14,22 -43,28 -65,14 -22,-14 -29,-43 -15,-65 1,0 115,-178 133,-392 13,-151 14,-274 15,-396 1,-62 2,-125 4,-188z"/>
    <path class="fil1" d="M9768 11994c-1,-26 19,-47 45,-48 27,-1 48,19 49,45 2,64 3,126 4,189 1,121 2,244 15,395 18,215 132,392 133,393 14,22 7,51 -15,65 -22,14 -51,7 -65,-15 0,0 -128,-198 -148,-435 -12,-150 -13,-277 -15,-402 -1,-61 -1,-122 -3,-187z"/>
    <path class="fil1" d="M9379 12132c-1,-26 20,-47 46,-48 26,-1 48,19 48,45 2,64 3,126 4,189 1,121 3,244 15,395 18,214 133,392 133,393 14,22 7,51 -15,65 -22,14 -51,7 -65,-15 0,0 -128,-198 -147,-435 -13,-150 -14,-277 -16,-402 0,-61 -1,-122 -3,-187z"/>
    <path class="fil1" d="M8971 12208c0,-26 20,-48 46,-49 26,-1 48,20 49,46 2,63 3,125 3,188 2,121 3,245 16,395 17,215 132,392 132,393 14,22 8,51 -14,65 -22,14 -51,7 -65,-14 -1,-1 -128,-199 -148,-436 -12,-149 -14,-277 -15,-402 -1,-61 -2,-122 -4,-186z"/>
    <path class="fil1" d="M8551 12283c-1,-26 20,-48 46,-49 26,-1 48,20 49,46 2,63 2,126 3,188 2,122 3,245 16,396 17,214 132,392 132,392 14,22 8,51 -14,65 -22,14 -51,8 -65,-14 -1,-1 -128,-198 -148,-436 -12,-149 -14,-277 -15,-402 -1,-61 -2,-122 -4,-186z"/>
    <path class="fil1" d="M8169 12281c0,-26 21,-47 47,-47 26,0 47,21 47,47l2 1000c0,26 -21,48 -47,48 -26,0 -47,-22 -47,-48l-2 -1000z"/>
    <path class="fil12" d="M5646 2070c-12,-23 -3,-51 20,-64 23,-12 51,-3 64,20 260,482 801,907 1425,1246 795,431 1723,720 2377,811 26,3 44,27 40,53 -3,26 -27,44 -53,41 -664,-92 -1604,-385 -2410,-822 -638,-346 -1193,-784 -1463,-1285z"/>
    <path class="fil12" d="M6177 1656c-26,0 -47,-21 -47,-47 0,-26 21,-47 47,-47 762,0 1472,132 2118,347 762,253 1435,620 2004,1022 598,423 1082,901 1430,1480 348,579 559,1259 615,2086 2,26 -18,48 -44,50 -26,2 -49,-18 -50,-44 -55,-811 -262,-1477 -603,-2044 -340,-566 -814,-1035 -1403,-1451 -562,-397 -1227,-760 -1978,-1010 -637,-211 -1337,-342 -2089,-342z"/>
    <path class="fil12" d="M6523 1226c-24,11 -52,0 -63,-24 -11,-23 0,-51 23,-62 1944,-896 3210,-5 4302,764 270,190 529,372 783,517 23,13 31,41 18,64 -13,23 -42,31 -65,18 -259,-147 -519,-331 -791,-522 -1071,-754 -2313,-1628 -4207,-755z"/>
    <path class="fil12" d="M5257 2866c-2,-27 18,-49 44,-50 26,-1 49,19 50,45 14,254 -59,615 -183,973 -121,345 -290,688 -479,927 -365,464 -371,1036 -371,1037 0,26 -22,47 -48,47 -26,-1 -47,-22 -46,-48 0,-2 6,-606 391,-1095 182,-230 346,-563 464,-900 120,-346 191,-694 178,-936z"/>
   </g>
  </g>
 </g>
</svg>
